<svg xmlns="http://www.w3.org/2000/svg" viewBox="0 0 1920 1080"><g transform="
          rotate(330 960 540) 
          translate(-724.7177209663948 -407.6537180435971)
          scale(1.7549142926733279)
        "><rect width="1920" height="1080" fill="rgb(191, 112, 246)"></rect><g transform="translate(0, 0)"><path fill="rgb(190, 123, 247)" fill-opacity="1" d="M0,117.648L1920,111.911L1920,1080L0,1080Z"></path></g><g transform="translate(0, 120)"><path fill="rgb(189, 133, 247)" fill-opacity="1" d="M0,115.869L1920,112.801L1920,960L0,960Z"></path></g><g transform="translate(0, 240)"><path fill="rgb(188, 144, 248)" fill-opacity="1" d="M0,39.291L1920,100.385L1920,840L0,840Z"></path></g><g transform="translate(0, 360)"><path fill="rgb(187, 155, 248)" fill-opacity="1" d="M0,1.842L1920,89.208L1920,720L0,720Z"></path></g><g transform="translate(0, 480)"><path fill="rgb(186, 165, 249)" fill-opacity="1" d="M0,45.364L1920,8.045L1920,600L0,600Z"></path></g><g transform="translate(0, 600)"><path fill="rgb(185, 176, 249)" fill-opacity="1" d="M0,83.892L1920,35.397L1920,480L0,480Z"></path></g><g transform="translate(0, 720)"><path fill="rgb(184, 187, 250)" fill-opacity="1" d="M0,35.346L1920,105.765L1920,360L0,360Z"></path></g><g transform="translate(0, 840)"><path fill="rgb(183, 197, 250)" fill-opacity="1" d="M0,110.987L1920,19.638L1920,240L0,240Z"></path></g><g transform="translate(0, 960)"><path fill="rgb(182, 208, 251)" fill-opacity="1" d="M0,35.707L1920,90.079L1920,120L0,120Z"></path></g></g></svg>