<?xml version="1.0" encoding="utf-8"?><svg xmlns="http://www.w3.org/2000/svg" xmlns:xlink="http://www.w3.org/1999/xlink" width="2032" height="980" preserveAspectRatio="xMidYMid" viewBox="0 0 2032 980" style="z-index:1;margin-right:-2.22222px;display:block;background-color:rgb(14, 21, 30);animation-play-state:paused" ><g transform="translate(1016,490) scale(1,1) translate(-1016,-490)" style="transform:matrix(1, 0, 0, 1, 0, 0);animation-play-state:paused" ><path d="M 0 543.5 C 339 543.5 677 690.5 1016 690.5 C 1355 690.5 1693 543.5 2032 543.5 C 2371 543.5 2709 690.5 3048 690.5 C 3387 690.5 3725 543.5 4064 543.5" fill="none" stroke="rgb(145, 38, 35)" stroke-opacity="0" stroke-width="80.5" transform="matrix(1,0,0,1,0,0)" style="transform:matrix(1, 0, 0, 1, 0, 0);animation-play-state:paused" ></path>
<path d="M 0 543.523 C 339 543.523 677 690.477 1016 690.477 C 1355 690.477 1693 543.523 2032 543.523 C 2371 543.523 2709 690.477 3048 690.477 C 3387 690.477 3725 543.523 4064 543.523" fill="none" stroke="rgb(145, 38, 35)" stroke-opacity="0" stroke-width="80.5" transform="matrix(1,0,0,1,-10.837143898010254,0)" style="transform:matrix(1, 0, 0, 1, -10.8371, 0);animation-play-state:paused" ></path>
<path d="M 0 543.591 C 339 543.591 677 690.409 1016 690.409 C 1355 690.409 1693 543.591 2032 543.591 C 2371 543.591 2709 690.409 3048 690.409 C 3387 690.409 3725 543.591 4064 543.591" fill="none" stroke="rgb(146, 39, 36)" stroke-opacity="0" stroke-width="80.5" transform="matrix(1,0,0,1,-21.674510955810547,0)" style="transform:matrix(1, 0, 0, 1, -21.6745, 0);animation-play-state:paused" ></path>
<path d="M 0 543.707 C 339 543.707 677 690.293 1016 690.293 C 1355 690.293 1693 543.707 2032 543.707 C 2371 543.707 2709 690.293 3048 690.293 C 3387 690.293 3725 543.707 4064 543.707" fill="none" stroke="rgb(146, 41, 38)" stroke-opacity="0" stroke-width="80.5" transform="matrix(1,0,0,1,-32.51187515258789,0)" style="transform:matrix(1, 0, 0, 1, -32.5119, 0);animation-play-state:paused" ></path>
<path d="M 0 543.871 C 339 543.871 677 690.129 1016 690.129 C 1355 690.129 1693 543.871 2032 543.871 C 2371 543.871 2709 690.129 3048 690.129 C 3387 690.129 3725 543.871 4064 543.871" fill="none" stroke="rgb(147, 43, 40)" stroke-opacity="0" stroke-width="80.5" transform="matrix(1,0,0,1,-43.349246978759766,0)" style="transform:matrix(1, 0, 0, 1, -43.3492, 0);animation-play-state:paused" ></path>
<path d="M 0 544.085 C 339 544.085 677 689.915 1016 689.915 C 1355 689.915 1693 544.085 2032 544.085 C 2371 544.085 2709 689.915 3048 689.915 C 3387 689.915 3725 544.085 4064 544.085" fill="none" stroke="rgb(149, 46, 43)" stroke-opacity="0" stroke-width="80.5" transform="matrix(1,0,0,1,-54.18661117553711,0)" style="transform:matrix(1, 0, 0, 1, -54.1866, 0);animation-play-state:paused" ></path>
<path d="M 0 544.351 C 339 544.351 677 689.649 1016 689.649 C 1355 689.649 1693 544.351 2032 544.351 C 2371 544.351 2709 689.649 3048 689.649 C 3387 689.649 3725 544.351 4064 544.351" fill="none" stroke="rgb(150, 50, 47)" stroke-opacity="0" stroke-width="80.5" transform="matrix(1,0,0,1,-65.02397918701172,0)" style="transform:matrix(1, 0, 0, 1, -65.024, 0);animation-play-state:paused" ></path>
<path d="M 0 544.67 C 339 544.67 677 689.33 1016 689.33 C 1355 689.33 1693 544.67 2032 544.67 C 2371 544.67 2709 689.33 3048 689.33 C 3387 689.33 3725 544.67 4064 544.67" fill="none" stroke="rgb(153, 54, 52)" stroke-opacity="0" stroke-width="80.5" transform="matrix(1,0,0,1,-75.86112976074219,0)" style="transform:matrix(1, 0, 0, 1, -75.8611, 0);animation-play-state:paused" ></path>
<path d="M 0 545.044 C 339 545.044 677 688.957 1016 688.957 C 1355 688.957 1693 545.044 2032 545.044 C 2371 545.044 2709 688.957 3048 688.957 C 3387 688.957 3725 545.044 4064 545.044" fill="none" stroke="rgb(155, 60, 58)" stroke-opacity="0" stroke-width="80.5" transform="matrix(1,0,0,1,-86.69849395751953,0)" style="transform:matrix(1, 0, 0, 1, -86.6985, 0);animation-play-state:paused" ></path>
<path d="M 0 545.473 C 339 545.473 677 688.527 1016 688.527 C 1355 688.527 1693 545.473 2032 545.473 C 2371 545.473 2709 688.527 3048 688.527 C 3387 688.527 3725 545.473 4064 545.473" fill="none" stroke="rgb(158, 67, 64)" stroke-opacity="0" stroke-width="80.5" transform="matrix(1,0,0,1,-97.53585815429688,0)" style="transform:matrix(1, 0, 0, 1, -97.5359, 0);animation-play-state:paused" ></path>
<path d="M 0 545.961 C 339 545.961 677 688.039 1016 688.039 C 1355 688.039 1693 545.961 2032 545.961 C 2371 545.961 2709 688.039 3048 688.039 C 3387 688.039 3725 545.961 4064 545.961" fill="none" stroke="rgb(162, 75, 72)" stroke-opacity="0" stroke-width="80.5" transform="matrix(1,0,0,1,-108.37322235107422,0)" style="transform:matrix(1, 0, 0, 1, -108.373, 0);animation-play-state:paused" ></path>
<path d="M 0 546.509 C 339 546.509 677 687.491 1016 687.491 C 1355 687.491 1693 546.509 2032 546.509 C 2371 546.509 2709 687.491 3048 687.491 C 3387 687.491 3725 546.509 4064 546.509" fill="none" stroke="rgb(166, 84, 82)" stroke-opacity="0" stroke-width="80.5" transform="matrix(1,0,0,1,-119.2105941772461,0)" style="transform:matrix(1, 0, 0, 1, -119.211, 0);animation-play-state:paused" ></path>
<path d="M 0 547.118 C 339 547.118 677 686.882 1016 686.882 C 1355 686.882 1693 547.118 2032 547.118 C 2371 547.118 2709 686.882 3048 686.882 C 3387 686.882 3725 547.118 4064 547.118" fill="none" stroke="rgb(171, 94, 92)" stroke-opacity="0" stroke-width="80.5" transform="matrix(1,0,0,1,-130.04795837402344,0)" style="transform:matrix(1, 0, 0, 1, -130.048, 0);animation-play-state:paused" ></path>
<path d="M 0 547.79 C 339 547.79 677 686.21 1016 686.21 C 1355 686.21 1693 547.79 2032 547.79 C 2371 547.79 2709 686.21 3048 686.21 C 3387 686.21 3725 547.79 4064 547.79" fill="none" stroke="rgb(176, 105, 103)" stroke-opacity="0" stroke-width="80.5" transform="matrix(1,0,0,1,-140.8853302001953,0)" style="transform:matrix(1, 0, 0, 1, -140.885, 0);animation-play-state:paused" ></path>
<path d="M 0 548.528 C 339 548.528 677 685.472 1016 685.472 C 1355 685.472 1693 548.528 2032 548.528 C 2371 548.528 2709 685.472 3048 685.472 C 3387 685.472 3725 548.528 4064 548.528" fill="none" stroke="rgb(181, 117, 115)" stroke-opacity="0" stroke-width="80.5" transform="matrix(1,0,0,1,-151.7224578857422,0)" style="transform:matrix(1, 0, 0, 1, -151.722, 0);animation-play-state:paused" ></path>
<path d="M 0 549.332 C 339 549.332 677 684.668 1016 684.668 C 1355 684.668 1693 549.332 2032 549.332 C 2371 549.332 2709 684.668 3048 684.668 C 3387 684.668 3725 549.332 4064 549.332" fill="none" stroke="rgb(187, 129, 128)" stroke-opacity="0" stroke-width="80.5" transform="matrix(1,0,0,1,-162.55984497070312,0)" style="transform:matrix(1, 0, 0, 1, -162.56, 0);animation-play-state:paused" ></path>
<path d="M 0 550.206 C 339 550.206 677 683.794 1016 683.794 C 1355 683.794 1693 550.206 2032 550.206 C 2371 550.206 2709 683.794 3048 683.794 C 3387 683.794 3725 550.206 4064 550.206" fill="none" stroke="rgb(193, 142, 141)" stroke-opacity="0" stroke-width="80.5" transform="matrix(1,0,0,1,-173.397216796875,0)" style="transform:matrix(1, 0, 0, 1, -173.397, 0);animation-play-state:paused" ></path>
<path d="M 0 551.151 C 339 551.151 677 682.849 1016 682.849 C 1355 682.849 1693 551.151 2032 551.151 C 2371 551.151 2709 682.849 3048 682.849 C 3387 682.849 3725 551.151 4064 551.151" fill="none" stroke="rgb(199, 155, 154)" stroke-opacity="0" stroke-width="80.5" transform="matrix(1,0,0,1,-184.2345733642578,0)" style="transform:matrix(1, 0, 0, 1, -184.235, 0);animation-play-state:paused" ></path>
<path d="M 0 552.168 C 339 552.168 677 681.832 1016 681.832 C 1355 681.832 1693 552.168 2032 552.168 C 2371 552.168 2709 681.832 3048 681.832 C 3387 681.832 3725 552.168 4064 552.168" fill="none" stroke="rgb(205, 168, 167)" stroke-opacity="0" stroke-width="80.5" transform="matrix(1,0,0,1,-195.0719451904297,0)" style="transform:matrix(1, 0, 0, 1, -195.072, 0);animation-play-state:paused" ></path>
<path d="M 0 553.261 C 339 553.261 677 680.739 1016 680.739 C 1355 680.739 1693 553.261 2032 553.261 C 2371 553.261 2709 680.739 3048 680.739 C 3387 680.739 3725 553.261 4064 553.261" fill="none" stroke="rgb(210, 180, 179)" stroke-opacity="0" stroke-width="80.5" transform="matrix(1,0,0,1,-205.9093017578125,0)" style="transform:matrix(1, 0, 0, 1, -205.909, 0);animation-play-state:paused" ></path>
<path d="M 0 554.431 C 339 554.431 677 679.569 1016 679.569 C 1355 679.569 1693 554.431 2032 554.431 C 2371 554.431 2709 679.569 3048 679.569 C 3387 679.569 3725 554.431 4064 554.431" fill="none" stroke="rgb(215, 191, 191)" stroke-opacity="0" stroke-width="80.5" transform="matrix(1,0,0,1,-216.74644470214844,0)" style="transform:matrix(1, 0, 0, 1, -216.746, 0);animation-play-state:paused" ></path>
<path d="M 0 555.68 C 339 555.68 677 678.32 1016 678.32 C 1355 678.32 1693 555.68 2032 555.68 C 2371 555.68 2709 678.32 3048 678.32 C 3387 678.32 3725 555.68 4064 555.68" fill="none" stroke="rgb(220, 201, 201)" stroke-opacity="0" stroke-width="80.5" transform="matrix(1,0,0,1,-227.58383178710938,0)" style="transform:matrix(1, 0, 0, 1, -227.584, 0);animation-play-state:paused" ></path>
<path d="M 0 557.009 C 339 557.009 677 676.991 1016 676.991 C 1355 676.991 1693 557.009 2032 557.009 C 2371 557.009 2709 676.991 3048 676.991 C 3387 676.991 3725 557.009 4064 557.009" fill="none" stroke="rgb(224, 209, 210)" stroke-opacity="0" stroke-width="80.5" transform="matrix(1,0,0,1,-238.4211883544922,0)" style="transform:matrix(1, 0, 0, 1, -238.421, 0);animation-play-state:paused" ></path>
<path d="M 0 558.422 C 339 558.422 677 675.578 1016 675.578 C 1355 675.578 1693 558.422 2032 558.422 C 2371 558.422 2709 675.578 3048 675.578 C 3387 675.578 3725 558.422 4064 558.422" fill="none" stroke="rgb(227, 217, 218)" stroke-opacity="0" stroke-width="80.5" transform="matrix(1,0,0,1,-249.25856018066406,0)" style="transform:matrix(1, 0, 0, 1, -249.259, 0);animation-play-state:paused" ></path>
<path d="M 0 559.919 C 339 559.919 677 674.081 1016 674.081 C 1355 674.081 1693 559.919 2032 559.919 C 2371 559.919 2709 674.081 3048 674.081 C 3387 674.081 3725 559.919 4064 559.919" fill="none" stroke="rgb(230, 224, 224)" stroke-opacity="0" stroke-width="80.5" transform="matrix(1,0,0,1,-260.0959167480469,0)" style="transform:matrix(1, 0, 0, 1, -260.096, 0);animation-play-state:paused" ></path>
<path d="M 0 561.502 C 339 561.502 677 672.498 1016 672.498 C 1355 672.498 1693 561.502 2032 561.502 C 2371 561.502 2709 672.498 3048 672.498 C 3387 672.498 3725 561.502 4064 561.502" fill="none" stroke="rgb(233, 229, 230)" stroke-opacity="0" stroke-width="80.5" transform="matrix(1,0,0,1,-270.93328857421875,0)" style="transform:matrix(1, 0, 0, 1, -270.933, 0);animation-play-state:paused" ></path>
<path d="M 0 563.174 C 339 563.174 677 670.826 1016 670.826 C 1355 670.826 1693 563.174 2032 563.174 C 2371 563.174 2709 670.826 3048 670.826 C 3387 670.826 3725 563.174 4064 563.174" fill="none" stroke="rgb(235, 234, 235)" stroke-opacity="0" stroke-width="80.5" transform="matrix(1,0,0,1,-281.7706604003906,0)" style="transform:matrix(1, 0, 0, 1, -281.771, 0);animation-play-state:paused" ></path>
<path d="M 0 564.935 C 339 564.935 677 669.065 1016 669.065 C 1355 669.065 1693 564.935 2032 564.935 C 2371 564.935 2709 669.065 3048 669.065 C 3387 669.065 3725 564.935 4064 564.935" fill="none" stroke="rgb(237, 238, 238)" stroke-opacity="0" stroke-width="80.5" transform="matrix(1,0,0,1,-292.6078186035156,0)" style="transform:matrix(1, 0, 0, 1, -292.608, 0);animation-play-state:paused" ></path>
<path d="M 0 566.786 C 339 566.786 677 667.214 1016 667.214 C 1355 667.214 1693 566.786 2032 566.786 C 2371 566.786 2709 667.214 3048 667.214 C 3387 667.214 3725 566.786 4064 566.786" fill="none" stroke="rgb(238, 240, 241)" stroke-opacity="0" stroke-width="80.5" transform="matrix(1,0,0,1,-303.4451599121094,0)" style="transform:matrix(1, 0, 0, 1, -303.445, 0);animation-play-state:paused" ></path>
<path d="M 0 568.729 C 339 568.729 677 665.271 1016 665.271 C 1355 665.271 1693 568.729 2032 568.729 C 2371 568.729 2709 665.271 3048 665.271 C 3387 665.271 3725 568.729 4064 568.729" fill="none" stroke="rgb(239, 243, 244)" stroke-opacity="0" stroke-width="80.5" transform="matrix(1,0,0,1,-314.28253173828125,0)" style="transform:matrix(1, 0, 0, 1, -314.283, 0);animation-play-state:paused" ></path>
<path d="M 0 570.764 C 339 570.764 677 663.236 1016 663.236 C 1355 663.236 1693 570.764 2032 570.764 C 2371 570.764 2709 663.236 3048 663.236 C 3387 663.236 3725 570.764 4064 570.764" fill="none" stroke="rgb(240, 244, 245)" stroke-opacity="0" stroke-width="80.5" transform="matrix(1,0,0,1,-325.1199035644531,0)" style="transform:matrix(1, 0, 0, 1, -325.12, 0);animation-play-state:paused" ></path>
<path d="M 0 572.891 C 339 572.891 677 661.109 1016 661.109 C 1355 661.109 1693 572.891 2032 572.891 C 2371 572.891 2709 661.109 3048 661.109 C 3387 661.109 3725 572.891 4064 572.891" fill="none" stroke="rgb(240, 245, 246)" stroke-opacity="0" stroke-width="80.5" transform="matrix(1,0,0,1,-335.957275390625,0)" style="transform:matrix(1, 0, 0, 1, -335.957, 0);animation-play-state:paused" ></path>
<path d="M 0 575.11 C 339 575.11 677 658.89 1016 658.89 C 1355 658.89 1693 575.11 2032 575.11 C 2371 575.11 2709 658.89 3048 658.89 C 3387 658.89 3725 575.11 4064 575.11" fill="none" stroke="rgb(240, 245, 246)" stroke-opacity="0" stroke-width="80.5" transform="matrix(1,0,0,1,-346.7946472167969,0)" style="transform:matrix(1, 0, 0, 1, -346.795, 0);animation-play-state:paused" ></path>
<path d="M 0 577.421 C 339 577.421 677 656.579 1016 656.579 C 1355 656.579 1693 577.421 2032 577.421 C 2371 577.421 2709 656.579 3048 656.579 C 3387 656.579 3725 577.421 4064 577.421" fill="none" stroke="rgb(240, 245, 246)" stroke-opacity="0" stroke-width="80.5" transform="matrix(1,0,0,1,-357.6319885253906,0)" style="transform:matrix(1, 0, 0, 1, -357.632, 0);animation-play-state:paused" ></path>
<path d="M 0 579.822 C 339 579.822 677 654.178 1016 654.178 C 1355 654.178 1693 579.822 2032 579.822 C 2371 579.822 2709 654.178 3048 654.178 C 3387 654.178 3725 579.822 4064 579.822" fill="none" stroke="rgb(239, 245, 246)" stroke-opacity="0" stroke-width="80.5" transform="matrix(1,0,0,1,-368.4691467285156,0)" style="transform:matrix(1, 0, 0, 1, -368.469, 0);animation-play-state:paused" ></path>
<path d="M 0 582.311 C 339 582.311 677 651.689 1016 651.689 C 1355 651.689 1693 582.311 2032 582.311 C 2371 582.311 2709 651.689 3048 651.689 C 3387 651.689 3725 582.311 4064 582.311" fill="none" stroke="rgb(239, 244, 245)" stroke-opacity="0" stroke-width="80.5" transform="matrix(1,0,0,1,-379.3065185546875,0)" style="transform:matrix(1, 0, 0, 1, -379.307, 0);animation-play-state:paused" ></path>
<path d="M 0 584.887 C 339 584.887 677 649.113 1016 649.113 C 1355 649.113 1693 584.887 2032 584.887 C 2371 584.887 2709 649.113 3048 649.113 C 3387 649.113 3725 584.887 4064 584.887" fill="none" stroke="rgb(238, 243, 244)" stroke-opacity="0" stroke-width="80.5" transform="matrix(1,0,0,1,-390.1438903808594,0)" style="transform:matrix(1, 0, 0, 1, -390.144, 0);animation-play-state:paused" ></path>
<path d="M 0 587.544 C 339 587.544 677 646.456 1016 646.456 C 1355 646.456 1693 587.544 2032 587.544 C 2371 587.544 2709 646.456 3048 646.456 C 3387 646.456 3725 587.544 4064 587.544" fill="none" stroke="rgb(236, 242, 243)" stroke-opacity="0" stroke-width="80.5" transform="matrix(1,0,0,1,-400.98126220703125,0)" style="transform:matrix(1, 0, 0, 1, -400.981, 0);animation-play-state:paused" ></path>
<path d="M 0 590.281 C 339 590.281 677 643.719 1016 643.719 C 1355 643.719 1693 590.281 2032 590.281 C 2371 590.281 2709 643.719 3048 643.719 C 3387 643.719 3725 590.281 4064 590.281" fill="none" stroke="rgb(235, 241, 242)" stroke-opacity="0" stroke-width="80.5" transform="matrix(1,0,0,1,-411.818603515625,0)" style="transform:matrix(1, 0, 0, 1, -411.819, 0);animation-play-state:paused" ></path>
<path d="M 0 593.091 C 339 593.091 677 640.909 1016 640.909 C 1355 640.909 1693 593.091 2032 593.091 C 2371 593.091 2709 640.909 3048 640.909 C 3387 640.909 3725 593.091 4064 593.091" fill="none" stroke="rgb(233, 239, 241)" stroke-opacity="0" stroke-width="80.5" transform="matrix(1,0,0,1,-422.6559753417969,0)" style="transform:matrix(1, 0, 0, 1, -422.656, 0);animation-play-state:paused" ></path>
<path d="M 0 595.97 C 339 595.97 677 638.03 1016 638.03 C 1355 638.03 1693 595.97 2032 595.97 C 2371 595.97 2709 638.03 3048 638.03 C 3387 638.03 3725 595.97 4064 595.97" fill="none" stroke="rgb(230, 237, 239)" stroke-opacity="0" stroke-width="80.5" transform="matrix(1,0,0,1,-433.4931335449219,0)" style="transform:matrix(1, 0, 0, 1, -433.493, 0);animation-play-state:paused" ></path>
<path d="M 0 598.91 C 339 598.91 677 635.09 1016 635.09 C 1355 635.09 1693 598.91 2032 598.91 C 2371 598.91 2709 635.09 3048 635.09 C 3387 635.09 3725 598.91 4064 598.91" fill="none" stroke="rgb(227, 234, 236)" stroke-opacity="0" stroke-width="80.5" transform="matrix(1,0,0,1,-444.33050537109375,0)" style="transform:matrix(1, 0, 0, 1, -444.33, 0);animation-play-state:paused" ></path>
<path d="M 0 601.904 C 339 601.904 677 632.096 1016 632.096 C 1355 632.096 1693 601.904 2032 601.904 C 2371 601.904 2709 632.096 3048 632.096 C 3387 632.096 3725 601.904 4064 601.904" fill="none" stroke="rgb(224, 231, 234)" stroke-opacity="0" stroke-width="80.5" transform="matrix(1,0,0,1,-455.1678771972656,0)" style="transform:matrix(1, 0, 0, 1, -455.168, 0);animation-play-state:paused" ></path>
<path d="M 0 604.945 C 339 604.945 677 629.055 1016 629.055 C 1355 629.055 1693 604.945 2032 604.945 C 2371 604.945 2709 629.055 3048 629.055 C 3387 629.055 3725 604.945 4064 604.945" fill="none" stroke="rgb(220, 228, 231)" stroke-opacity="0" stroke-width="80.5" transform="matrix(1,0,0,1,-466.0052185058594,0)" style="transform:matrix(1, 0, 0, 1, -466.005, 0);animation-play-state:paused" ></path>
<path d="M 0 608.024 C 339 608.024 677 625.976 1016 625.976 C 1355 625.976 1693 608.024 2032 608.024 C 2371 608.024 2709 625.976 3048 625.976 C 3387 625.976 3725 608.024 4064 608.024" fill="none" stroke="rgb(215, 224, 228)" stroke-opacity="0" stroke-width="80.5" transform="matrix(1,0,0,1,-476.84259033203125,0)" style="transform:matrix(1, 0, 0, 1, -476.843, 0);animation-play-state:paused" ></path>
<path d="M 0 611.131 C 339 611.131 677 622.869 1016 622.869 C 1355 622.869 1693 611.131 2032 611.131 C 2371 611.131 2709 622.869 3048 622.869 C 3387 622.869 3725 611.131 4064 611.131" fill="none" stroke="rgb(211, 220, 224)" stroke-opacity="0" stroke-width="80.5" transform="matrix(1,0,0,1,-487.6799621582031,0)" style="transform:matrix(1, 0, 0, 1, -487.68, 0);animation-play-state:paused" ></path>
<path d="M 0 614.257 C 339 614.257 677 619.743 1016 619.743 C 1355 619.743 1693 614.257 2032 614.257 C 2371 614.257 2709 619.743 3048 619.743 C 3387 619.743 3725 614.257 4064 614.257" fill="none" stroke="rgb(206, 216, 220)" stroke-opacity="0.022727272727272728" stroke-width="80.5" transform="matrix(1,0,0,1,-498.517333984375,0)" style="transform:matrix(1, 0, 0, 1, -498.517, 0);animation-play-state:paused" ></path>
<path d="M 0 617.392 C 339 617.392 677 616.608 1016 616.608 C 1355 616.608 1693 617.392 2032 617.392 C 2371 617.392 2709 616.608 3048 616.608 C 3387 616.608 3725 617.392 4064 617.392" fill="none" stroke="rgb(200, 212, 217)" stroke-opacity="0.045454545454545456" stroke-width="80.5" transform="matrix(1,0,0,1,-509.3544616699219,0)" style="transform:matrix(1, 0, 0, 1, -509.354, 0);animation-play-state:paused" ></path>
<path d="M 0 620.526 C 339 620.526 677 613.474 1016 613.474 C 1355 613.474 1693 620.526 2032 620.526 C 2371 620.526 2709 613.474 3048 613.474 C 3387 613.474 3725 620.526 4064 620.526" fill="none" stroke="rgb(195, 208, 213)" stroke-opacity="0.06818181818181818" stroke-width="80.5" transform="matrix(1,0,0,1,-520.1918334960938,0)" style="transform:matrix(1, 0, 0, 1, -520.192, 0);animation-play-state:paused" ></path>
<path d="M 0 623.648 C 339 623.648 677 610.352 1016 610.352 C 1355 610.352 1693 623.648 2032 623.648 C 2371 623.648 2709 610.352 3048 610.352 C 3387 610.352 3725 623.648 4064 623.648" fill="none" stroke="rgb(190, 204, 209)" stroke-opacity="0.09090909090909091" stroke-width="80.5" transform="matrix(1,0,0,1,-531.0292358398438,0)" style="transform:matrix(1, 0, 0, 1, -531.029, 0);animation-play-state:paused" ></path>
<path d="M 0 626.749 C 339 626.749 677 607.251 1016 607.251 C 1355 607.251 1693 626.749 2032 626.749 C 2371 626.749 2709 607.251 3048 607.251 C 3387 607.251 3725 626.749 4064 626.749" fill="none" stroke="rgb(186, 200, 205)" stroke-opacity="0.11363636363636363" stroke-width="80.5" transform="matrix(1,0,0,1,-541.8665771484375,0)" style="transform:matrix(1, 0, 0, 1, -541.867, 0);animation-play-state:paused" ></path>
<path d="M 0 629.819 C 339 629.819 677 604.181 1016 604.181 C 1355 604.181 1693 629.819 2032 629.819 C 2371 629.819 2709 604.181 3048 604.181 C 3387 604.181 3725 629.819 4064 629.819" fill="none" stroke="rgb(181, 196, 202)" stroke-opacity="0.13636363636363635" stroke-width="80.5" transform="matrix(1,0,0,1,-552.7039794921875,0)" style="transform:matrix(1, 0, 0, 1, -552.704, 0);animation-play-state:paused" ></path>
<path d="M 0 632.849 C 339 632.849 677 601.151 1016 601.151 C 1355 601.151 1693 632.849 2032 632.849 C 2371 632.849 2709 601.151 3048 601.151 C 3387 601.151 3725 632.849 4064 632.849" fill="none" stroke="rgb(177, 193, 199)" stroke-opacity="0.1590909090909091" stroke-width="80.5" transform="matrix(1,0,0,1,-563.5413208007812,0)" style="transform:matrix(1, 0, 0, 1, -563.541, 0);animation-play-state:paused" ></path>
<path d="M 0 635.831 C 339 635.831 677 598.169 1016 598.169 C 1355 598.169 1693 635.831 2032 635.831 C 2371 635.831 2709 598.169 3048 598.169 C 3387 598.169 3725 635.831 4064 635.831" fill="none" stroke="rgb(174, 190, 197)" stroke-opacity="0.18181818181818182" stroke-width="80.5" transform="matrix(1,0,0,1,-574.3784790039062,0)" style="transform:matrix(1, 0, 0, 1, -574.378, 0);animation-play-state:paused" ></path>
<path d="M 0 638.756 C 339 638.756 677 595.244 1016 595.244 C 1355 595.244 1693 638.756 2032 638.756 C 2371 638.756 2709 595.244 3048 595.244 C 3387 595.244 3725 638.756 4064 638.756" fill="none" stroke="rgb(171, 188, 195)" stroke-opacity="0.20454545454545456" stroke-width="80.5" transform="matrix(1,0,0,1,-585.2158203125,0)" style="transform:matrix(1, 0, 0, 1, -585.216, 0);animation-play-state:paused" ></path>
<path d="M 0 641.618 C 339 641.618 677 592.382 1016 592.382 C 1355 592.382 1693 641.618 2032 641.618 C 2371 641.618 2709 592.382 3048 592.382 C 3387 592.382 3725 641.618 4064 641.618" fill="none" stroke="rgb(169, 186, 193)" stroke-opacity="0.22727272727272727" stroke-width="80.5" transform="matrix(1,0,0,1,-596.0531616210938,0)" style="transform:matrix(1, 0, 0, 1, -596.053, 0);animation-play-state:paused" ></path>
<path d="M 0 644.41 C 339 644.41 677 589.59 1016 589.59 C 1355 589.59 1693 644.41 2032 644.41 C 2371 644.41 2709 589.59 3048 589.59 C 3387 589.59 3725 644.41 4064 644.41" fill="none" stroke="rgb(167, 184, 192)" stroke-opacity="0.25" stroke-width="80.5" transform="matrix(1,0,0,1,-606.8905639648438,0)" style="transform:matrix(1, 0, 0, 1, -606.891, 0);animation-play-state:paused" ></path>
<path d="M 0 647.128 C 339 647.128 677 586.872 1016 586.872 C 1355 586.872 1693 647.128 2032 647.128 C 2371 647.128 2709 586.872 3048 586.872 C 3387 586.872 3725 647.128 4064 647.128" fill="none" stroke="rgb(165, 183, 190)" stroke-opacity="0.2727272727272727" stroke-width="80.5" transform="matrix(1,0,0,1,-617.7279052734375,0)" style="transform:matrix(1, 0, 0, 1, -617.728, 0);animation-play-state:paused" ></path>
<path d="M 0 649.765 C 339 649.765 677 584.235 1016 584.235 C 1355 584.235 1693 649.765 2032 649.765 C 2371 649.765 2709 584.235 3048 584.235 C 3387 584.235 3725 649.765 4064 649.765" fill="none" stroke="rgb(164, 182, 189)" stroke-opacity="0.29545454545454547" stroke-width="80.5" transform="matrix(1,0,0,1,-628.5653076171875,0)" style="transform:matrix(1, 0, 0, 1, -628.565, 0);animation-play-state:paused" ></path>
<path d="M 0 652.319 C 339 652.319 677 581.681 1016 581.681 C 1355 581.681 1693 652.319 2032 652.319 C 2371 652.319 2709 581.681 3048 581.681 C 3387 581.681 3725 652.319 4064 652.319" fill="none" stroke="rgb(163, 181, 189)" stroke-opacity="0.3181818181818182" stroke-width="80.5" transform="matrix(1,0,0,1,-639.4026489257812,0)" style="transform:matrix(1, 0, 0, 1, -639.403, 0);animation-play-state:paused" ></path>
<path d="M 0 654.787 C 339 654.787 677 579.213 1016 579.213 C 1355 579.213 1693 654.787 2032 654.787 C 2371 654.787 2709 579.213 3048 579.213 C 3387 579.213 3725 654.787 4064 654.787" fill="none" stroke="rgb(162, 180, 188)" stroke-opacity="0.3409090909090909" stroke-width="80.5" transform="matrix(1,0,0,1,-650.2398071289062,0)" style="transform:matrix(1, 0, 0, 1, -650.24, 0);animation-play-state:paused" ></path>
<path d="M 0 657.165 C 339 657.165 677 576.835 1016 576.835 C 1355 576.835 1693 657.165 2032 657.165 C 2371 657.165 2709 576.835 3048 576.835 C 3387 576.835 3725 657.165 4064 657.165" fill="none" stroke="rgb(162, 180, 188)" stroke-opacity="0.36363636363636365" stroke-width="80.5" transform="matrix(1,0,0,1,-661.0772094726562,0)" style="transform:matrix(1, 0, 0, 1, -661.077, 0);animation-play-state:paused" ></path>
<path d="M 0 659.453 C 339 659.453 677 574.547 1016 574.547 C 1355 574.547 1693 659.453 2032 659.453 C 2371 659.453 2709 574.547 3048 574.547 C 3387 574.547 3725 659.453 4064 659.453" fill="none" stroke="rgb(162, 180, 188)" stroke-opacity="0.38636363636363635" stroke-width="80.5" transform="matrix(1,0,0,1,-671.91455078125,0)" style="transform:matrix(1, 0, 0, 1, -671.915, 0);animation-play-state:paused" ></path>
<path d="M 0 661.649 C 339 661.649 677 572.351 1016 572.351 C 1355 572.351 1693 661.649 2032 661.649 C 2371 661.649 2709 572.351 3048 572.351 C 3387 572.351 3725 661.649 4064 661.649" fill="none" stroke="rgb(162, 180, 188)" stroke-opacity="0.4090909090909091" stroke-width="80.5" transform="matrix(1,0,0,1,-682.751953125,0)" style="transform:matrix(1, 0, 0, 1, -682.752, 0);animation-play-state:paused" ></path>
<path d="M 0 663.754 C 339 663.754 677 570.246 1016 570.246 C 1355 570.246 1693 663.754 2032 663.754 C 2371 663.754 2709 570.246 3048 570.246 C 3387 570.246 3725 663.754 4064 663.754" fill="none" stroke="rgb(162, 180, 188)" stroke-opacity="0.4318181818181818" stroke-width="80.5" transform="matrix(1,0,0,1,-693.5892944335938,0)" style="transform:matrix(1, 0, 0, 1, -693.589, 0);animation-play-state:paused" ></path>
<path d="M 0 665.765 C 339 665.765 677 568.235 1016 568.235 C 1355 568.235 1693 665.765 2032 665.765 C 2371 665.765 2709 568.235 3048 568.235 C 3387 568.235 3725 665.765 4064 665.765" fill="none" stroke="rgb(161, 180, 188)" stroke-opacity="0.45454545454545453" stroke-width="80.5" transform="matrix(1,0,0,1,-704.4266357421875,0)" style="transform:matrix(1, 0, 0, 1, -704.427, 0);animation-play-state:paused" ></path>
<path d="M 0 667.685 C 339 667.685 677 566.315 1016 566.315 C 1355 566.315 1693 667.685 2032 667.685 C 2371 667.685 2709 566.315 3048 566.315 C 3387 566.315 3725 667.685 4064 667.685" fill="none" stroke="rgb(161, 179, 187)" stroke-opacity="0.4772727272727273" stroke-width="80.5" transform="matrix(1,0,0,1,-715.2639770507812,0)" style="transform:matrix(1, 0, 0, 1, -715.264, 0);animation-play-state:paused" ></path>
<path d="M 0 669.514 C 339 669.514 677 564.486 1016 564.486 C 1355 564.486 1693 669.514 2032 669.514 C 2371 669.514 2709 564.486 3048 564.486 C 3387 564.486 3725 669.514 4064 669.514" fill="none" stroke="rgb(160, 179, 187)" stroke-opacity="0.5" stroke-width="80.5" transform="matrix(1,0,0,1,-726.1011352539062,0)" style="transform:matrix(1, 0, 0, 1, -726.101, 0);animation-play-state:paused" ></path>
<path d="M 0 671.252 C 339 671.252 677 562.748 1016 562.748 C 1355 562.748 1693 671.252 2032 671.252 C 2371 671.252 2709 562.748 3048 562.748 C 3387 562.748 3725 671.252 4064 671.252" fill="none" stroke="rgb(159, 178, 187)" stroke-opacity="0.5227272727272727" stroke-width="80.5" transform="matrix(1,0,0,1,-736.9385375976562,0)" style="transform:matrix(1, 0, 0, 1, -736.939, 0);animation-play-state:paused" ></path>
<path d="M 0 672.902 C 339 672.902 677 561.098 1016 561.098 C 1355 561.098 1693 672.902 2032 672.902 C 2371 672.902 2709 561.098 3048 561.098 C 3387 561.098 3725 672.902 4064 672.902" fill="none" stroke="rgb(158, 177, 186)" stroke-opacity="0.5454545454545454" stroke-width="80.5" transform="matrix(1,0,0,1,-747.77587890625,0)" style="transform:matrix(1, 0, 0, 1, -747.776, 0);animation-play-state:paused" ></path>
<path d="M 0 674.463 C 339 674.463 677 559.537 1016 559.537 C 1355 559.537 1693 674.463 2032 674.463 C 2371 674.463 2709 559.537 3048 559.537 C 3387 559.537 3725 674.463 4064 674.463" fill="none" stroke="rgb(157, 176, 185)" stroke-opacity="0.5681818181818182" stroke-width="80.5" transform="matrix(1,0,0,1,-758.61328125,0)" style="transform:matrix(1, 0, 0, 1, -758.613, 0);animation-play-state:paused" ></path>
<path d="M 0 675.939 C 339 675.939 677 558.061 1016 558.061 C 1355 558.061 1693 675.939 2032 675.939 C 2371 675.939 2709 558.061 3048 558.061 C 3387 558.061 3725 675.939 4064 675.939" fill="none" stroke="rgb(155, 175, 185)" stroke-opacity="0.5909090909090909" stroke-width="80.5" transform="matrix(1,0,0,1,-769.4506225585938,0)" style="transform:matrix(1, 0, 0, 1, -769.451, 0);animation-play-state:paused" ></path>
<path d="M 0 677.331 C 339 677.331 677 556.669 1016 556.669 C 1355 556.669 1693 677.331 2032 677.331 C 2371 677.331 2709 556.669 3048 556.669 C 3387 556.669 3725 677.331 4064 677.331" fill="none" stroke="rgb(153, 174, 184)" stroke-opacity="0.6136363636363636" stroke-width="80.5" transform="matrix(1,0,0,1,-780.2880249023438,0)" style="transform:matrix(1, 0, 0, 1, -780.288, 0);animation-play-state:paused" ></path>
<path d="M 0 678.64 C 339 678.64 677 555.36 1016 555.36 C 1355 555.36 1693 678.64 2032 678.64 C 2371 678.64 2709 555.36 3048 555.36 C 3387 555.36 3725 678.64 4064 678.64" fill="none" stroke="rgb(151, 173, 183)" stroke-opacity="0.6363636363636364" stroke-width="80.5" transform="matrix(1,0,0,1,-791.1251831054688,0)" style="transform:matrix(1, 0, 0, 1, -791.125, 0);animation-play-state:paused" ></path>
<path d="M 0 679.869 C 339 679.869 677 554.131 1016 554.131 C 1355 554.131 1693 679.869 2032 679.869 C 2371 679.869 2709 554.131 3048 554.131 C 3387 554.131 3725 679.869 4064 679.869" fill="none" stroke="rgb(149, 171, 181)" stroke-opacity="0.6590909090909091" stroke-width="80.5" transform="matrix(1,0,0,1,-801.9625244140625,0)" style="transform:matrix(1, 0, 0, 1, -801.963, 0);animation-play-state:paused" ></path></g></svg>